M48
; DRILL file {KiCad (5.1.5)-3} date 5/25/2020 10:48:14 AM
; FORMAT={-:-/ absolute / inch / decimal}
; #@! TF.CreationDate,2020-05-25T10:48:14-05:00
; #@! TF.GenerationSoftware,Kicad,Pcbnew,(5.1.5)-3
; #@! TF.FileFunction,Plated,1,2,PTH
FMAT,2
INCH
T1C0.0157
T2C0.0394
T3C0.0400
%
G90
G05
T1
X5.5681Y-1.6083
X5.7Y-1.5
X5.73Y-3.58
X5.7636Y-1.7672
X5.7786Y-1.6883
X5.7964Y-1.7451
X5.8296Y-1.92
X5.8344Y-1.735
X5.8384Y-1.7893
X5.88Y-3.32
X5.8926Y-1.8542
X5.9Y-3.22
X5.91Y-3.27
X5.9302Y-3.0502
X5.99Y-2.95
X5.9998Y-2.8902
X6.0287Y-2.781
X6.08Y-2.7
X6.1169Y-2.6295
X6.16Y-2.59
X6.19Y-2.44
X6.21Y-2.37
X6.26Y-2.3
X6.3Y-2.13
X6.49Y-1.38
X6.59Y-1.7228
X6.64Y-1.71
X6.8Y-1.42
T2
X5.8Y-1.87
X5.8Y-1.97
X5.8Y-2.07
X5.8Y-2.17
X5.8Y-2.27
X5.8Y-2.37
X5.8Y-2.47
X5.8Y-2.57
X5.8Y-2.67
X5.8Y-2.77
X5.8Y-2.87
X5.8Y-2.97
X5.8Y-3.07
X5.8Y-3.17
X5.8Y-3.27
X5.8Y-3.37
X5.8Y-3.47
X5.8Y-3.57
X5.8Y-3.67
X5.8Y-3.77
X6.39Y-1.97
X6.39Y-2.17
X6.39Y-2.37
X6.39Y-2.57
X6.39Y-2.77
X6.39Y-2.97
X6.39Y-3.17
X6.39Y-3.37
X6.39Y-3.57
X6.39Y-3.77
X6.391Y-1.87
X6.391Y-2.07
X6.391Y-2.27
X6.391Y-2.47
X6.391Y-2.67
X6.391Y-2.87
X6.391Y-3.07
X6.391Y-3.27
X6.391Y-3.47
X6.391Y-3.67
T3
X5.15Y-1.45
X5.15Y-1.55
X5.25Y-1.45
X5.25Y-1.55
X5.35Y-1.45
X5.35Y-1.55
X5.45Y-1.45
X5.45Y-1.55
X5.55Y-1.45
X5.55Y-1.55
X5.65Y-1.45
X5.65Y-1.55
X5.75Y-1.45
X5.75Y-1.55
X5.85Y-1.45
X5.85Y-1.55
X5.95Y-1.45
X5.95Y-1.55
X6.05Y-1.45
X6.05Y-1.55
X6.15Y-1.45
X6.15Y-1.55
X6.25Y-1.45
X6.25Y-1.55
X6.35Y-1.45
X6.35Y-1.55
X6.45Y-1.45
X6.45Y-1.55
X6.55Y-1.45
X6.55Y-1.55
X6.65Y-1.45
X6.65Y-1.55
X6.75Y-1.45
X6.75Y-1.55
X6.85Y-1.45
X6.85Y-1.55
X6.95Y-1.45
X6.95Y-1.55
X7.05Y-1.45
X7.05Y-1.55
T0
M30
