G04 #@! TF.GenerationSoftware,KiCad,Pcbnew,(5.1.5)-3*
G04 #@! TF.CreationDate,2020-05-25T10:48:09-05:00*
G04 #@! TF.ProjectId,breakout_board_2x20,62726561-6b6f-4757-945f-626f6172645f,rev?*
G04 #@! TF.SameCoordinates,Original*
G04 #@! TF.FileFunction,Soldermask,Bot*
G04 #@! TF.FilePolarity,Negative*
%FSLAX46Y46*%
G04 Gerber Fmt 4.6, Leading zero omitted, Abs format (unit mm)*
G04 Created by KiCad (PCBNEW (5.1.5)-3) date 2020-05-25 10:48:09*
%MOMM*%
%LPD*%
G04 APERTURE LIST*
%ADD10C,0.100000*%
G04 APERTURE END LIST*
D10*
G36*
X162419512Y-94861927D02*
G01*
X162568812Y-94891624D01*
X162732784Y-94959544D01*
X162880354Y-95058147D01*
X163005853Y-95183646D01*
X163104456Y-95331216D01*
X163172376Y-95495188D01*
X163207000Y-95669259D01*
X163207000Y-95846741D01*
X163172376Y-96020812D01*
X163104456Y-96184784D01*
X163005853Y-96332354D01*
X162880354Y-96457853D01*
X162732784Y-96556456D01*
X162568812Y-96624376D01*
X162419512Y-96654073D01*
X162394742Y-96659000D01*
X162217258Y-96659000D01*
X162192488Y-96654073D01*
X162043188Y-96624376D01*
X161879216Y-96556456D01*
X161731646Y-96457853D01*
X161606147Y-96332354D01*
X161507544Y-96184784D01*
X161439624Y-96020812D01*
X161405000Y-95846741D01*
X161405000Y-95669259D01*
X161439624Y-95495188D01*
X161507544Y-95331216D01*
X161606147Y-95183646D01*
X161731646Y-95058147D01*
X161879216Y-94959544D01*
X162043188Y-94891624D01*
X162192488Y-94861927D01*
X162217258Y-94857000D01*
X162394742Y-94857000D01*
X162419512Y-94861927D01*
G37*
G36*
X147433512Y-94861927D02*
G01*
X147582812Y-94891624D01*
X147746784Y-94959544D01*
X147894354Y-95058147D01*
X148019853Y-95183646D01*
X148118456Y-95331216D01*
X148186376Y-95495188D01*
X148221000Y-95669259D01*
X148221000Y-95846741D01*
X148186376Y-96020812D01*
X148118456Y-96184784D01*
X148019853Y-96332354D01*
X147894354Y-96457853D01*
X147746784Y-96556456D01*
X147582812Y-96624376D01*
X147433512Y-96654073D01*
X147408742Y-96659000D01*
X147231258Y-96659000D01*
X147206488Y-96654073D01*
X147057188Y-96624376D01*
X146893216Y-96556456D01*
X146745646Y-96457853D01*
X146620147Y-96332354D01*
X146521544Y-96184784D01*
X146453624Y-96020812D01*
X146419000Y-95846741D01*
X146419000Y-95669259D01*
X146453624Y-95495188D01*
X146521544Y-95331216D01*
X146620147Y-95183646D01*
X146745646Y-95058147D01*
X146893216Y-94959544D01*
X147057188Y-94891624D01*
X147206488Y-94861927D01*
X147231258Y-94857000D01*
X147408742Y-94857000D01*
X147433512Y-94861927D01*
G37*
G36*
X162444912Y-92321927D02*
G01*
X162594212Y-92351624D01*
X162758184Y-92419544D01*
X162905754Y-92518147D01*
X163031253Y-92643646D01*
X163129856Y-92791216D01*
X163197776Y-92955188D01*
X163232400Y-93129259D01*
X163232400Y-93306741D01*
X163197776Y-93480812D01*
X163129856Y-93644784D01*
X163031253Y-93792354D01*
X162905754Y-93917853D01*
X162758184Y-94016456D01*
X162594212Y-94084376D01*
X162444912Y-94114073D01*
X162420142Y-94119000D01*
X162242658Y-94119000D01*
X162217888Y-94114073D01*
X162068588Y-94084376D01*
X161904616Y-94016456D01*
X161757046Y-93917853D01*
X161631547Y-93792354D01*
X161532944Y-93644784D01*
X161465024Y-93480812D01*
X161430400Y-93306741D01*
X161430400Y-93129259D01*
X161465024Y-92955188D01*
X161532944Y-92791216D01*
X161631547Y-92643646D01*
X161757046Y-92518147D01*
X161904616Y-92419544D01*
X162068588Y-92351624D01*
X162217888Y-92321927D01*
X162242658Y-92317000D01*
X162420142Y-92317000D01*
X162444912Y-92321927D01*
G37*
G36*
X147433512Y-92321927D02*
G01*
X147582812Y-92351624D01*
X147746784Y-92419544D01*
X147894354Y-92518147D01*
X148019853Y-92643646D01*
X148118456Y-92791216D01*
X148186376Y-92955188D01*
X148221000Y-93129259D01*
X148221000Y-93306741D01*
X148186376Y-93480812D01*
X148118456Y-93644784D01*
X148019853Y-93792354D01*
X147894354Y-93917853D01*
X147746784Y-94016456D01*
X147582812Y-94084376D01*
X147433512Y-94114073D01*
X147408742Y-94119000D01*
X147231258Y-94119000D01*
X147206488Y-94114073D01*
X147057188Y-94084376D01*
X146893216Y-94016456D01*
X146745646Y-93917853D01*
X146620147Y-93792354D01*
X146521544Y-93644784D01*
X146453624Y-93480812D01*
X146419000Y-93306741D01*
X146419000Y-93129259D01*
X146453624Y-92955188D01*
X146521544Y-92791216D01*
X146620147Y-92643646D01*
X146745646Y-92518147D01*
X146893216Y-92419544D01*
X147057188Y-92351624D01*
X147206488Y-92321927D01*
X147231258Y-92317000D01*
X147408742Y-92317000D01*
X147433512Y-92321927D01*
G37*
G36*
X162419512Y-89781927D02*
G01*
X162568812Y-89811624D01*
X162732784Y-89879544D01*
X162880354Y-89978147D01*
X163005853Y-90103646D01*
X163104456Y-90251216D01*
X163172376Y-90415188D01*
X163207000Y-90589259D01*
X163207000Y-90766741D01*
X163172376Y-90940812D01*
X163104456Y-91104784D01*
X163005853Y-91252354D01*
X162880354Y-91377853D01*
X162732784Y-91476456D01*
X162568812Y-91544376D01*
X162419512Y-91574073D01*
X162394742Y-91579000D01*
X162217258Y-91579000D01*
X162192488Y-91574073D01*
X162043188Y-91544376D01*
X161879216Y-91476456D01*
X161731646Y-91377853D01*
X161606147Y-91252354D01*
X161507544Y-91104784D01*
X161439624Y-90940812D01*
X161405000Y-90766741D01*
X161405000Y-90589259D01*
X161439624Y-90415188D01*
X161507544Y-90251216D01*
X161606147Y-90103646D01*
X161731646Y-89978147D01*
X161879216Y-89879544D01*
X162043188Y-89811624D01*
X162192488Y-89781927D01*
X162217258Y-89777000D01*
X162394742Y-89777000D01*
X162419512Y-89781927D01*
G37*
G36*
X147433512Y-89781927D02*
G01*
X147582812Y-89811624D01*
X147746784Y-89879544D01*
X147894354Y-89978147D01*
X148019853Y-90103646D01*
X148118456Y-90251216D01*
X148186376Y-90415188D01*
X148221000Y-90589259D01*
X148221000Y-90766741D01*
X148186376Y-90940812D01*
X148118456Y-91104784D01*
X148019853Y-91252354D01*
X147894354Y-91377853D01*
X147746784Y-91476456D01*
X147582812Y-91544376D01*
X147433512Y-91574073D01*
X147408742Y-91579000D01*
X147231258Y-91579000D01*
X147206488Y-91574073D01*
X147057188Y-91544376D01*
X146893216Y-91476456D01*
X146745646Y-91377853D01*
X146620147Y-91252354D01*
X146521544Y-91104784D01*
X146453624Y-90940812D01*
X146419000Y-90766741D01*
X146419000Y-90589259D01*
X146453624Y-90415188D01*
X146521544Y-90251216D01*
X146620147Y-90103646D01*
X146745646Y-89978147D01*
X146893216Y-89879544D01*
X147057188Y-89811624D01*
X147206488Y-89781927D01*
X147231258Y-89777000D01*
X147408742Y-89777000D01*
X147433512Y-89781927D01*
G37*
G36*
X162444912Y-87241927D02*
G01*
X162594212Y-87271624D01*
X162758184Y-87339544D01*
X162905754Y-87438147D01*
X163031253Y-87563646D01*
X163129856Y-87711216D01*
X163197776Y-87875188D01*
X163232400Y-88049259D01*
X163232400Y-88226741D01*
X163197776Y-88400812D01*
X163129856Y-88564784D01*
X163031253Y-88712354D01*
X162905754Y-88837853D01*
X162758184Y-88936456D01*
X162594212Y-89004376D01*
X162444912Y-89034073D01*
X162420142Y-89039000D01*
X162242658Y-89039000D01*
X162217888Y-89034073D01*
X162068588Y-89004376D01*
X161904616Y-88936456D01*
X161757046Y-88837853D01*
X161631547Y-88712354D01*
X161532944Y-88564784D01*
X161465024Y-88400812D01*
X161430400Y-88226741D01*
X161430400Y-88049259D01*
X161465024Y-87875188D01*
X161532944Y-87711216D01*
X161631547Y-87563646D01*
X161757046Y-87438147D01*
X161904616Y-87339544D01*
X162068588Y-87271624D01*
X162217888Y-87241927D01*
X162242658Y-87237000D01*
X162420142Y-87237000D01*
X162444912Y-87241927D01*
G37*
G36*
X147433512Y-87241927D02*
G01*
X147582812Y-87271624D01*
X147746784Y-87339544D01*
X147894354Y-87438147D01*
X148019853Y-87563646D01*
X148118456Y-87711216D01*
X148186376Y-87875188D01*
X148221000Y-88049259D01*
X148221000Y-88226741D01*
X148186376Y-88400812D01*
X148118456Y-88564784D01*
X148019853Y-88712354D01*
X147894354Y-88837853D01*
X147746784Y-88936456D01*
X147582812Y-89004376D01*
X147433512Y-89034073D01*
X147408742Y-89039000D01*
X147231258Y-89039000D01*
X147206488Y-89034073D01*
X147057188Y-89004376D01*
X146893216Y-88936456D01*
X146745646Y-88837853D01*
X146620147Y-88712354D01*
X146521544Y-88564784D01*
X146453624Y-88400812D01*
X146419000Y-88226741D01*
X146419000Y-88049259D01*
X146453624Y-87875188D01*
X146521544Y-87711216D01*
X146620147Y-87563646D01*
X146745646Y-87438147D01*
X146893216Y-87339544D01*
X147057188Y-87271624D01*
X147206488Y-87241927D01*
X147231258Y-87237000D01*
X147408742Y-87237000D01*
X147433512Y-87241927D01*
G37*
G36*
X162419512Y-84701927D02*
G01*
X162568812Y-84731624D01*
X162732784Y-84799544D01*
X162880354Y-84898147D01*
X163005853Y-85023646D01*
X163104456Y-85171216D01*
X163172376Y-85335188D01*
X163207000Y-85509259D01*
X163207000Y-85686741D01*
X163172376Y-85860812D01*
X163104456Y-86024784D01*
X163005853Y-86172354D01*
X162880354Y-86297853D01*
X162732784Y-86396456D01*
X162568812Y-86464376D01*
X162419512Y-86494073D01*
X162394742Y-86499000D01*
X162217258Y-86499000D01*
X162192488Y-86494073D01*
X162043188Y-86464376D01*
X161879216Y-86396456D01*
X161731646Y-86297853D01*
X161606147Y-86172354D01*
X161507544Y-86024784D01*
X161439624Y-85860812D01*
X161405000Y-85686741D01*
X161405000Y-85509259D01*
X161439624Y-85335188D01*
X161507544Y-85171216D01*
X161606147Y-85023646D01*
X161731646Y-84898147D01*
X161879216Y-84799544D01*
X162043188Y-84731624D01*
X162192488Y-84701927D01*
X162217258Y-84697000D01*
X162394742Y-84697000D01*
X162419512Y-84701927D01*
G37*
G36*
X147433512Y-84701927D02*
G01*
X147582812Y-84731624D01*
X147746784Y-84799544D01*
X147894354Y-84898147D01*
X148019853Y-85023646D01*
X148118456Y-85171216D01*
X148186376Y-85335188D01*
X148221000Y-85509259D01*
X148221000Y-85686741D01*
X148186376Y-85860812D01*
X148118456Y-86024784D01*
X148019853Y-86172354D01*
X147894354Y-86297853D01*
X147746784Y-86396456D01*
X147582812Y-86464376D01*
X147433512Y-86494073D01*
X147408742Y-86499000D01*
X147231258Y-86499000D01*
X147206488Y-86494073D01*
X147057188Y-86464376D01*
X146893216Y-86396456D01*
X146745646Y-86297853D01*
X146620147Y-86172354D01*
X146521544Y-86024784D01*
X146453624Y-85860812D01*
X146419000Y-85686741D01*
X146419000Y-85509259D01*
X146453624Y-85335188D01*
X146521544Y-85171216D01*
X146620147Y-85023646D01*
X146745646Y-84898147D01*
X146893216Y-84799544D01*
X147057188Y-84731624D01*
X147206488Y-84701927D01*
X147231258Y-84697000D01*
X147408742Y-84697000D01*
X147433512Y-84701927D01*
G37*
G36*
X147433512Y-82161927D02*
G01*
X147582812Y-82191624D01*
X147746784Y-82259544D01*
X147894354Y-82358147D01*
X148019853Y-82483646D01*
X148118456Y-82631216D01*
X148186376Y-82795188D01*
X148221000Y-82969259D01*
X148221000Y-83146741D01*
X148186376Y-83320812D01*
X148118456Y-83484784D01*
X148019853Y-83632354D01*
X147894354Y-83757853D01*
X147746784Y-83856456D01*
X147582812Y-83924376D01*
X147433512Y-83954073D01*
X147408742Y-83959000D01*
X147231258Y-83959000D01*
X147206488Y-83954073D01*
X147057188Y-83924376D01*
X146893216Y-83856456D01*
X146745646Y-83757853D01*
X146620147Y-83632354D01*
X146521544Y-83484784D01*
X146453624Y-83320812D01*
X146419000Y-83146741D01*
X146419000Y-82969259D01*
X146453624Y-82795188D01*
X146521544Y-82631216D01*
X146620147Y-82483646D01*
X146745646Y-82358147D01*
X146893216Y-82259544D01*
X147057188Y-82191624D01*
X147206488Y-82161927D01*
X147231258Y-82157000D01*
X147408742Y-82157000D01*
X147433512Y-82161927D01*
G37*
G36*
X162444912Y-82161927D02*
G01*
X162594212Y-82191624D01*
X162758184Y-82259544D01*
X162905754Y-82358147D01*
X163031253Y-82483646D01*
X163129856Y-82631216D01*
X163197776Y-82795188D01*
X163232400Y-82969259D01*
X163232400Y-83146741D01*
X163197776Y-83320812D01*
X163129856Y-83484784D01*
X163031253Y-83632354D01*
X162905754Y-83757853D01*
X162758184Y-83856456D01*
X162594212Y-83924376D01*
X162444912Y-83954073D01*
X162420142Y-83959000D01*
X162242658Y-83959000D01*
X162217888Y-83954073D01*
X162068588Y-83924376D01*
X161904616Y-83856456D01*
X161757046Y-83757853D01*
X161631547Y-83632354D01*
X161532944Y-83484784D01*
X161465024Y-83320812D01*
X161430400Y-83146741D01*
X161430400Y-82969259D01*
X161465024Y-82795188D01*
X161532944Y-82631216D01*
X161631547Y-82483646D01*
X161757046Y-82358147D01*
X161904616Y-82259544D01*
X162068588Y-82191624D01*
X162217888Y-82161927D01*
X162242658Y-82157000D01*
X162420142Y-82157000D01*
X162444912Y-82161927D01*
G37*
G36*
X147433512Y-79621927D02*
G01*
X147582812Y-79651624D01*
X147746784Y-79719544D01*
X147894354Y-79818147D01*
X148019853Y-79943646D01*
X148118456Y-80091216D01*
X148186376Y-80255188D01*
X148221000Y-80429259D01*
X148221000Y-80606741D01*
X148186376Y-80780812D01*
X148118456Y-80944784D01*
X148019853Y-81092354D01*
X147894354Y-81217853D01*
X147746784Y-81316456D01*
X147582812Y-81384376D01*
X147433512Y-81414073D01*
X147408742Y-81419000D01*
X147231258Y-81419000D01*
X147206488Y-81414073D01*
X147057188Y-81384376D01*
X146893216Y-81316456D01*
X146745646Y-81217853D01*
X146620147Y-81092354D01*
X146521544Y-80944784D01*
X146453624Y-80780812D01*
X146419000Y-80606741D01*
X146419000Y-80429259D01*
X146453624Y-80255188D01*
X146521544Y-80091216D01*
X146620147Y-79943646D01*
X146745646Y-79818147D01*
X146893216Y-79719544D01*
X147057188Y-79651624D01*
X147206488Y-79621927D01*
X147231258Y-79617000D01*
X147408742Y-79617000D01*
X147433512Y-79621927D01*
G37*
G36*
X162419512Y-79621927D02*
G01*
X162568812Y-79651624D01*
X162732784Y-79719544D01*
X162880354Y-79818147D01*
X163005853Y-79943646D01*
X163104456Y-80091216D01*
X163172376Y-80255188D01*
X163207000Y-80429259D01*
X163207000Y-80606741D01*
X163172376Y-80780812D01*
X163104456Y-80944784D01*
X163005853Y-81092354D01*
X162880354Y-81217853D01*
X162732784Y-81316456D01*
X162568812Y-81384376D01*
X162419512Y-81414073D01*
X162394742Y-81419000D01*
X162217258Y-81419000D01*
X162192488Y-81414073D01*
X162043188Y-81384376D01*
X161879216Y-81316456D01*
X161731646Y-81217853D01*
X161606147Y-81092354D01*
X161507544Y-80944784D01*
X161439624Y-80780812D01*
X161405000Y-80606741D01*
X161405000Y-80429259D01*
X161439624Y-80255188D01*
X161507544Y-80091216D01*
X161606147Y-79943646D01*
X161731646Y-79818147D01*
X161879216Y-79719544D01*
X162043188Y-79651624D01*
X162192488Y-79621927D01*
X162217258Y-79617000D01*
X162394742Y-79617000D01*
X162419512Y-79621927D01*
G37*
G36*
X147433512Y-77081927D02*
G01*
X147582812Y-77111624D01*
X147746784Y-77179544D01*
X147894354Y-77278147D01*
X148019853Y-77403646D01*
X148118456Y-77551216D01*
X148186376Y-77715188D01*
X148221000Y-77889259D01*
X148221000Y-78066741D01*
X148186376Y-78240812D01*
X148118456Y-78404784D01*
X148019853Y-78552354D01*
X147894354Y-78677853D01*
X147746784Y-78776456D01*
X147582812Y-78844376D01*
X147433512Y-78874073D01*
X147408742Y-78879000D01*
X147231258Y-78879000D01*
X147206488Y-78874073D01*
X147057188Y-78844376D01*
X146893216Y-78776456D01*
X146745646Y-78677853D01*
X146620147Y-78552354D01*
X146521544Y-78404784D01*
X146453624Y-78240812D01*
X146419000Y-78066741D01*
X146419000Y-77889259D01*
X146453624Y-77715188D01*
X146521544Y-77551216D01*
X146620147Y-77403646D01*
X146745646Y-77278147D01*
X146893216Y-77179544D01*
X147057188Y-77111624D01*
X147206488Y-77081927D01*
X147231258Y-77077000D01*
X147408742Y-77077000D01*
X147433512Y-77081927D01*
G37*
G36*
X162444912Y-77081927D02*
G01*
X162594212Y-77111624D01*
X162758184Y-77179544D01*
X162905754Y-77278147D01*
X163031253Y-77403646D01*
X163129856Y-77551216D01*
X163197776Y-77715188D01*
X163232400Y-77889259D01*
X163232400Y-78066741D01*
X163197776Y-78240812D01*
X163129856Y-78404784D01*
X163031253Y-78552354D01*
X162905754Y-78677853D01*
X162758184Y-78776456D01*
X162594212Y-78844376D01*
X162444912Y-78874073D01*
X162420142Y-78879000D01*
X162242658Y-78879000D01*
X162217888Y-78874073D01*
X162068588Y-78844376D01*
X161904616Y-78776456D01*
X161757046Y-78677853D01*
X161631547Y-78552354D01*
X161532944Y-78404784D01*
X161465024Y-78240812D01*
X161430400Y-78066741D01*
X161430400Y-77889259D01*
X161465024Y-77715188D01*
X161532944Y-77551216D01*
X161631547Y-77403646D01*
X161757046Y-77278147D01*
X161904616Y-77179544D01*
X162068588Y-77111624D01*
X162217888Y-77081927D01*
X162242658Y-77077000D01*
X162420142Y-77077000D01*
X162444912Y-77081927D01*
G37*
G36*
X147433512Y-74541927D02*
G01*
X147582812Y-74571624D01*
X147746784Y-74639544D01*
X147894354Y-74738147D01*
X148019853Y-74863646D01*
X148118456Y-75011216D01*
X148186376Y-75175188D01*
X148221000Y-75349259D01*
X148221000Y-75526741D01*
X148186376Y-75700812D01*
X148118456Y-75864784D01*
X148019853Y-76012354D01*
X147894354Y-76137853D01*
X147746784Y-76236456D01*
X147582812Y-76304376D01*
X147433512Y-76334073D01*
X147408742Y-76339000D01*
X147231258Y-76339000D01*
X147206488Y-76334073D01*
X147057188Y-76304376D01*
X146893216Y-76236456D01*
X146745646Y-76137853D01*
X146620147Y-76012354D01*
X146521544Y-75864784D01*
X146453624Y-75700812D01*
X146419000Y-75526741D01*
X146419000Y-75349259D01*
X146453624Y-75175188D01*
X146521544Y-75011216D01*
X146620147Y-74863646D01*
X146745646Y-74738147D01*
X146893216Y-74639544D01*
X147057188Y-74571624D01*
X147206488Y-74541927D01*
X147231258Y-74537000D01*
X147408742Y-74537000D01*
X147433512Y-74541927D01*
G37*
G36*
X162419512Y-74541927D02*
G01*
X162568812Y-74571624D01*
X162732784Y-74639544D01*
X162880354Y-74738147D01*
X163005853Y-74863646D01*
X163104456Y-75011216D01*
X163172376Y-75175188D01*
X163207000Y-75349259D01*
X163207000Y-75526741D01*
X163172376Y-75700812D01*
X163104456Y-75864784D01*
X163005853Y-76012354D01*
X162880354Y-76137853D01*
X162732784Y-76236456D01*
X162568812Y-76304376D01*
X162419512Y-76334073D01*
X162394742Y-76339000D01*
X162217258Y-76339000D01*
X162192488Y-76334073D01*
X162043188Y-76304376D01*
X161879216Y-76236456D01*
X161731646Y-76137853D01*
X161606147Y-76012354D01*
X161507544Y-75864784D01*
X161439624Y-75700812D01*
X161405000Y-75526741D01*
X161405000Y-75349259D01*
X161439624Y-75175188D01*
X161507544Y-75011216D01*
X161606147Y-74863646D01*
X161731646Y-74738147D01*
X161879216Y-74639544D01*
X162043188Y-74571624D01*
X162192488Y-74541927D01*
X162217258Y-74537000D01*
X162394742Y-74537000D01*
X162419512Y-74541927D01*
G37*
G36*
X147433512Y-72001927D02*
G01*
X147582812Y-72031624D01*
X147746784Y-72099544D01*
X147894354Y-72198147D01*
X148019853Y-72323646D01*
X148118456Y-72471216D01*
X148186376Y-72635188D01*
X148221000Y-72809259D01*
X148221000Y-72986741D01*
X148186376Y-73160812D01*
X148118456Y-73324784D01*
X148019853Y-73472354D01*
X147894354Y-73597853D01*
X147746784Y-73696456D01*
X147582812Y-73764376D01*
X147433512Y-73794073D01*
X147408742Y-73799000D01*
X147231258Y-73799000D01*
X147206488Y-73794073D01*
X147057188Y-73764376D01*
X146893216Y-73696456D01*
X146745646Y-73597853D01*
X146620147Y-73472354D01*
X146521544Y-73324784D01*
X146453624Y-73160812D01*
X146419000Y-72986741D01*
X146419000Y-72809259D01*
X146453624Y-72635188D01*
X146521544Y-72471216D01*
X146620147Y-72323646D01*
X146745646Y-72198147D01*
X146893216Y-72099544D01*
X147057188Y-72031624D01*
X147206488Y-72001927D01*
X147231258Y-71997000D01*
X147408742Y-71997000D01*
X147433512Y-72001927D01*
G37*
G36*
X162444912Y-72001927D02*
G01*
X162594212Y-72031624D01*
X162758184Y-72099544D01*
X162905754Y-72198147D01*
X163031253Y-72323646D01*
X163129856Y-72471216D01*
X163197776Y-72635188D01*
X163232400Y-72809259D01*
X163232400Y-72986741D01*
X163197776Y-73160812D01*
X163129856Y-73324784D01*
X163031253Y-73472354D01*
X162905754Y-73597853D01*
X162758184Y-73696456D01*
X162594212Y-73764376D01*
X162444912Y-73794073D01*
X162420142Y-73799000D01*
X162242658Y-73799000D01*
X162217888Y-73794073D01*
X162068588Y-73764376D01*
X161904616Y-73696456D01*
X161757046Y-73597853D01*
X161631547Y-73472354D01*
X161532944Y-73324784D01*
X161465024Y-73160812D01*
X161430400Y-72986741D01*
X161430400Y-72809259D01*
X161465024Y-72635188D01*
X161532944Y-72471216D01*
X161631547Y-72323646D01*
X161757046Y-72198147D01*
X161904616Y-72099544D01*
X162068588Y-72031624D01*
X162217888Y-72001927D01*
X162242658Y-71997000D01*
X162420142Y-71997000D01*
X162444912Y-72001927D01*
G37*
G36*
X147433512Y-69461927D02*
G01*
X147582812Y-69491624D01*
X147746784Y-69559544D01*
X147894354Y-69658147D01*
X148019853Y-69783646D01*
X148118456Y-69931216D01*
X148186376Y-70095188D01*
X148221000Y-70269259D01*
X148221000Y-70446741D01*
X148186376Y-70620812D01*
X148118456Y-70784784D01*
X148019853Y-70932354D01*
X147894354Y-71057853D01*
X147746784Y-71156456D01*
X147582812Y-71224376D01*
X147433512Y-71254073D01*
X147408742Y-71259000D01*
X147231258Y-71259000D01*
X147206488Y-71254073D01*
X147057188Y-71224376D01*
X146893216Y-71156456D01*
X146745646Y-71057853D01*
X146620147Y-70932354D01*
X146521544Y-70784784D01*
X146453624Y-70620812D01*
X146419000Y-70446741D01*
X146419000Y-70269259D01*
X146453624Y-70095188D01*
X146521544Y-69931216D01*
X146620147Y-69783646D01*
X146745646Y-69658147D01*
X146893216Y-69559544D01*
X147057188Y-69491624D01*
X147206488Y-69461927D01*
X147231258Y-69457000D01*
X147408742Y-69457000D01*
X147433512Y-69461927D01*
G37*
G36*
X162419512Y-69461927D02*
G01*
X162568812Y-69491624D01*
X162732784Y-69559544D01*
X162880354Y-69658147D01*
X163005853Y-69783646D01*
X163104456Y-69931216D01*
X163172376Y-70095188D01*
X163207000Y-70269259D01*
X163207000Y-70446741D01*
X163172376Y-70620812D01*
X163104456Y-70784784D01*
X163005853Y-70932354D01*
X162880354Y-71057853D01*
X162732784Y-71156456D01*
X162568812Y-71224376D01*
X162419512Y-71254073D01*
X162394742Y-71259000D01*
X162217258Y-71259000D01*
X162192488Y-71254073D01*
X162043188Y-71224376D01*
X161879216Y-71156456D01*
X161731646Y-71057853D01*
X161606147Y-70932354D01*
X161507544Y-70784784D01*
X161439624Y-70620812D01*
X161405000Y-70446741D01*
X161405000Y-70269259D01*
X161439624Y-70095188D01*
X161507544Y-69931216D01*
X161606147Y-69783646D01*
X161731646Y-69658147D01*
X161879216Y-69559544D01*
X162043188Y-69491624D01*
X162192488Y-69461927D01*
X162217258Y-69457000D01*
X162394742Y-69457000D01*
X162419512Y-69461927D01*
G37*
G36*
X147433512Y-66921927D02*
G01*
X147582812Y-66951624D01*
X147746784Y-67019544D01*
X147894354Y-67118147D01*
X148019853Y-67243646D01*
X148118456Y-67391216D01*
X148186376Y-67555188D01*
X148221000Y-67729259D01*
X148221000Y-67906741D01*
X148186376Y-68080812D01*
X148118456Y-68244784D01*
X148019853Y-68392354D01*
X147894354Y-68517853D01*
X147746784Y-68616456D01*
X147582812Y-68684376D01*
X147433512Y-68714073D01*
X147408742Y-68719000D01*
X147231258Y-68719000D01*
X147206488Y-68714073D01*
X147057188Y-68684376D01*
X146893216Y-68616456D01*
X146745646Y-68517853D01*
X146620147Y-68392354D01*
X146521544Y-68244784D01*
X146453624Y-68080812D01*
X146419000Y-67906741D01*
X146419000Y-67729259D01*
X146453624Y-67555188D01*
X146521544Y-67391216D01*
X146620147Y-67243646D01*
X146745646Y-67118147D01*
X146893216Y-67019544D01*
X147057188Y-66951624D01*
X147206488Y-66921927D01*
X147231258Y-66917000D01*
X147408742Y-66917000D01*
X147433512Y-66921927D01*
G37*
G36*
X162444912Y-66921927D02*
G01*
X162594212Y-66951624D01*
X162758184Y-67019544D01*
X162905754Y-67118147D01*
X163031253Y-67243646D01*
X163129856Y-67391216D01*
X163197776Y-67555188D01*
X163232400Y-67729259D01*
X163232400Y-67906741D01*
X163197776Y-68080812D01*
X163129856Y-68244784D01*
X163031253Y-68392354D01*
X162905754Y-68517853D01*
X162758184Y-68616456D01*
X162594212Y-68684376D01*
X162444912Y-68714073D01*
X162420142Y-68719000D01*
X162242658Y-68719000D01*
X162217888Y-68714073D01*
X162068588Y-68684376D01*
X161904616Y-68616456D01*
X161757046Y-68517853D01*
X161631547Y-68392354D01*
X161532944Y-68244784D01*
X161465024Y-68080812D01*
X161430400Y-67906741D01*
X161430400Y-67729259D01*
X161465024Y-67555188D01*
X161532944Y-67391216D01*
X161631547Y-67243646D01*
X161757046Y-67118147D01*
X161904616Y-67019544D01*
X162068588Y-66951624D01*
X162217888Y-66921927D01*
X162242658Y-66917000D01*
X162420142Y-66917000D01*
X162444912Y-66921927D01*
G37*
G36*
X147433512Y-64381927D02*
G01*
X147582812Y-64411624D01*
X147746784Y-64479544D01*
X147894354Y-64578147D01*
X148019853Y-64703646D01*
X148118456Y-64851216D01*
X148186376Y-65015188D01*
X148221000Y-65189259D01*
X148221000Y-65366741D01*
X148186376Y-65540812D01*
X148118456Y-65704784D01*
X148019853Y-65852354D01*
X147894354Y-65977853D01*
X147746784Y-66076456D01*
X147582812Y-66144376D01*
X147433512Y-66174073D01*
X147408742Y-66179000D01*
X147231258Y-66179000D01*
X147206488Y-66174073D01*
X147057188Y-66144376D01*
X146893216Y-66076456D01*
X146745646Y-65977853D01*
X146620147Y-65852354D01*
X146521544Y-65704784D01*
X146453624Y-65540812D01*
X146419000Y-65366741D01*
X146419000Y-65189259D01*
X146453624Y-65015188D01*
X146521544Y-64851216D01*
X146620147Y-64703646D01*
X146745646Y-64578147D01*
X146893216Y-64479544D01*
X147057188Y-64411624D01*
X147206488Y-64381927D01*
X147231258Y-64377000D01*
X147408742Y-64377000D01*
X147433512Y-64381927D01*
G37*
G36*
X162419512Y-64381927D02*
G01*
X162568812Y-64411624D01*
X162732784Y-64479544D01*
X162880354Y-64578147D01*
X163005853Y-64703646D01*
X163104456Y-64851216D01*
X163172376Y-65015188D01*
X163207000Y-65189259D01*
X163207000Y-65366741D01*
X163172376Y-65540812D01*
X163104456Y-65704784D01*
X163005853Y-65852354D01*
X162880354Y-65977853D01*
X162732784Y-66076456D01*
X162568812Y-66144376D01*
X162419512Y-66174073D01*
X162394742Y-66179000D01*
X162217258Y-66179000D01*
X162192488Y-66174073D01*
X162043188Y-66144376D01*
X161879216Y-66076456D01*
X161731646Y-65977853D01*
X161606147Y-65852354D01*
X161507544Y-65704784D01*
X161439624Y-65540812D01*
X161405000Y-65366741D01*
X161405000Y-65189259D01*
X161439624Y-65015188D01*
X161507544Y-64851216D01*
X161606147Y-64703646D01*
X161731646Y-64578147D01*
X161879216Y-64479544D01*
X162043188Y-64411624D01*
X162192488Y-64381927D01*
X162217258Y-64377000D01*
X162394742Y-64377000D01*
X162419512Y-64381927D01*
G37*
G36*
X147433512Y-61841927D02*
G01*
X147582812Y-61871624D01*
X147746784Y-61939544D01*
X147894354Y-62038147D01*
X148019853Y-62163646D01*
X148118456Y-62311216D01*
X148186376Y-62475188D01*
X148221000Y-62649259D01*
X148221000Y-62826741D01*
X148186376Y-63000812D01*
X148118456Y-63164784D01*
X148019853Y-63312354D01*
X147894354Y-63437853D01*
X147746784Y-63536456D01*
X147582812Y-63604376D01*
X147433512Y-63634073D01*
X147408742Y-63639000D01*
X147231258Y-63639000D01*
X147206488Y-63634073D01*
X147057188Y-63604376D01*
X146893216Y-63536456D01*
X146745646Y-63437853D01*
X146620147Y-63312354D01*
X146521544Y-63164784D01*
X146453624Y-63000812D01*
X146419000Y-62826741D01*
X146419000Y-62649259D01*
X146453624Y-62475188D01*
X146521544Y-62311216D01*
X146620147Y-62163646D01*
X146745646Y-62038147D01*
X146893216Y-61939544D01*
X147057188Y-61871624D01*
X147206488Y-61841927D01*
X147231258Y-61837000D01*
X147408742Y-61837000D01*
X147433512Y-61841927D01*
G37*
G36*
X162444912Y-61841927D02*
G01*
X162594212Y-61871624D01*
X162758184Y-61939544D01*
X162905754Y-62038147D01*
X163031253Y-62163646D01*
X163129856Y-62311216D01*
X163197776Y-62475188D01*
X163232400Y-62649259D01*
X163232400Y-62826741D01*
X163197776Y-63000812D01*
X163129856Y-63164784D01*
X163031253Y-63312354D01*
X162905754Y-63437853D01*
X162758184Y-63536456D01*
X162594212Y-63604376D01*
X162444912Y-63634073D01*
X162420142Y-63639000D01*
X162242658Y-63639000D01*
X162217888Y-63634073D01*
X162068588Y-63604376D01*
X161904616Y-63536456D01*
X161757046Y-63437853D01*
X161631547Y-63312354D01*
X161532944Y-63164784D01*
X161465024Y-63000812D01*
X161430400Y-62826741D01*
X161430400Y-62649259D01*
X161465024Y-62475188D01*
X161532944Y-62311216D01*
X161631547Y-62163646D01*
X161757046Y-62038147D01*
X161904616Y-61939544D01*
X162068588Y-61871624D01*
X162217888Y-61841927D01*
X162242658Y-61837000D01*
X162420142Y-61837000D01*
X162444912Y-61841927D01*
G37*
G36*
X162419512Y-59301927D02*
G01*
X162568812Y-59331624D01*
X162732784Y-59399544D01*
X162880354Y-59498147D01*
X163005853Y-59623646D01*
X163104456Y-59771216D01*
X163172376Y-59935188D01*
X163207000Y-60109259D01*
X163207000Y-60286741D01*
X163172376Y-60460812D01*
X163104456Y-60624784D01*
X163005853Y-60772354D01*
X162880354Y-60897853D01*
X162732784Y-60996456D01*
X162568812Y-61064376D01*
X162419512Y-61094073D01*
X162394742Y-61099000D01*
X162217258Y-61099000D01*
X162192488Y-61094073D01*
X162043188Y-61064376D01*
X161879216Y-60996456D01*
X161731646Y-60897853D01*
X161606147Y-60772354D01*
X161507544Y-60624784D01*
X161439624Y-60460812D01*
X161405000Y-60286741D01*
X161405000Y-60109259D01*
X161439624Y-59935188D01*
X161507544Y-59771216D01*
X161606147Y-59623646D01*
X161731646Y-59498147D01*
X161879216Y-59399544D01*
X162043188Y-59331624D01*
X162192488Y-59301927D01*
X162217258Y-59297000D01*
X162394742Y-59297000D01*
X162419512Y-59301927D01*
G37*
G36*
X147433512Y-59301927D02*
G01*
X147582812Y-59331624D01*
X147746784Y-59399544D01*
X147894354Y-59498147D01*
X148019853Y-59623646D01*
X148118456Y-59771216D01*
X148186376Y-59935188D01*
X148221000Y-60109259D01*
X148221000Y-60286741D01*
X148186376Y-60460812D01*
X148118456Y-60624784D01*
X148019853Y-60772354D01*
X147894354Y-60897853D01*
X147746784Y-60996456D01*
X147582812Y-61064376D01*
X147433512Y-61094073D01*
X147408742Y-61099000D01*
X147231258Y-61099000D01*
X147206488Y-61094073D01*
X147057188Y-61064376D01*
X146893216Y-60996456D01*
X146745646Y-60897853D01*
X146620147Y-60772354D01*
X146521544Y-60624784D01*
X146453624Y-60460812D01*
X146419000Y-60286741D01*
X146419000Y-60109259D01*
X146453624Y-59935188D01*
X146521544Y-59771216D01*
X146620147Y-59623646D01*
X146745646Y-59498147D01*
X146893216Y-59399544D01*
X147057188Y-59331624D01*
X147206488Y-59301927D01*
X147231258Y-59297000D01*
X147408742Y-59297000D01*
X147433512Y-59301927D01*
G37*
G36*
X162444912Y-56761927D02*
G01*
X162594212Y-56791624D01*
X162758184Y-56859544D01*
X162905754Y-56958147D01*
X163031253Y-57083646D01*
X163129856Y-57231216D01*
X163197776Y-57395188D01*
X163232400Y-57569259D01*
X163232400Y-57746741D01*
X163197776Y-57920812D01*
X163129856Y-58084784D01*
X163031253Y-58232354D01*
X162905754Y-58357853D01*
X162758184Y-58456456D01*
X162594212Y-58524376D01*
X162444912Y-58554073D01*
X162420142Y-58559000D01*
X162242658Y-58559000D01*
X162217888Y-58554073D01*
X162068588Y-58524376D01*
X161904616Y-58456456D01*
X161757046Y-58357853D01*
X161631547Y-58232354D01*
X161532944Y-58084784D01*
X161465024Y-57920812D01*
X161430400Y-57746741D01*
X161430400Y-57569259D01*
X161465024Y-57395188D01*
X161532944Y-57231216D01*
X161631547Y-57083646D01*
X161757046Y-56958147D01*
X161904616Y-56859544D01*
X162068588Y-56791624D01*
X162217888Y-56761927D01*
X162242658Y-56757000D01*
X162420142Y-56757000D01*
X162444912Y-56761927D01*
G37*
G36*
X147433512Y-56761927D02*
G01*
X147582812Y-56791624D01*
X147746784Y-56859544D01*
X147894354Y-56958147D01*
X148019853Y-57083646D01*
X148118456Y-57231216D01*
X148186376Y-57395188D01*
X148221000Y-57569259D01*
X148221000Y-57746741D01*
X148186376Y-57920812D01*
X148118456Y-58084784D01*
X148019853Y-58232354D01*
X147894354Y-58357853D01*
X147746784Y-58456456D01*
X147582812Y-58524376D01*
X147433512Y-58554073D01*
X147408742Y-58559000D01*
X147231258Y-58559000D01*
X147206488Y-58554073D01*
X147057188Y-58524376D01*
X146893216Y-58456456D01*
X146745646Y-58357853D01*
X146620147Y-58232354D01*
X146521544Y-58084784D01*
X146453624Y-57920812D01*
X146419000Y-57746741D01*
X146419000Y-57569259D01*
X146453624Y-57395188D01*
X146521544Y-57231216D01*
X146620147Y-57083646D01*
X146745646Y-56958147D01*
X146893216Y-56859544D01*
X147057188Y-56791624D01*
X147206488Y-56761927D01*
X147231258Y-56757000D01*
X147408742Y-56757000D01*
X147433512Y-56761927D01*
G37*
G36*
X147433512Y-54221927D02*
G01*
X147582812Y-54251624D01*
X147746784Y-54319544D01*
X147894354Y-54418147D01*
X148019853Y-54543646D01*
X148118456Y-54691216D01*
X148186376Y-54855188D01*
X148221000Y-55029259D01*
X148221000Y-55206741D01*
X148186376Y-55380812D01*
X148118456Y-55544784D01*
X148019853Y-55692354D01*
X147894354Y-55817853D01*
X147746784Y-55916456D01*
X147582812Y-55984376D01*
X147433512Y-56014073D01*
X147408742Y-56019000D01*
X147231258Y-56019000D01*
X147206488Y-56014073D01*
X147057188Y-55984376D01*
X146893216Y-55916456D01*
X146745646Y-55817853D01*
X146620147Y-55692354D01*
X146521544Y-55544784D01*
X146453624Y-55380812D01*
X146419000Y-55206741D01*
X146419000Y-55029259D01*
X146453624Y-54855188D01*
X146521544Y-54691216D01*
X146620147Y-54543646D01*
X146745646Y-54418147D01*
X146893216Y-54319544D01*
X147057188Y-54251624D01*
X147206488Y-54221927D01*
X147231258Y-54217000D01*
X147408742Y-54217000D01*
X147433512Y-54221927D01*
G37*
G36*
X162419512Y-54221927D02*
G01*
X162568812Y-54251624D01*
X162732784Y-54319544D01*
X162880354Y-54418147D01*
X163005853Y-54543646D01*
X163104456Y-54691216D01*
X163172376Y-54855188D01*
X163207000Y-55029259D01*
X163207000Y-55206741D01*
X163172376Y-55380812D01*
X163104456Y-55544784D01*
X163005853Y-55692354D01*
X162880354Y-55817853D01*
X162732784Y-55916456D01*
X162568812Y-55984376D01*
X162419512Y-56014073D01*
X162394742Y-56019000D01*
X162217258Y-56019000D01*
X162192488Y-56014073D01*
X162043188Y-55984376D01*
X161879216Y-55916456D01*
X161731646Y-55817853D01*
X161606147Y-55692354D01*
X161507544Y-55544784D01*
X161439624Y-55380812D01*
X161405000Y-55206741D01*
X161405000Y-55029259D01*
X161439624Y-54855188D01*
X161507544Y-54691216D01*
X161606147Y-54543646D01*
X161731646Y-54418147D01*
X161879216Y-54319544D01*
X162043188Y-54251624D01*
X162192488Y-54221927D01*
X162217258Y-54217000D01*
X162394742Y-54217000D01*
X162419512Y-54221927D01*
G37*
G36*
X147433512Y-51681927D02*
G01*
X147582812Y-51711624D01*
X147746784Y-51779544D01*
X147894354Y-51878147D01*
X148019853Y-52003646D01*
X148118456Y-52151216D01*
X148186376Y-52315188D01*
X148221000Y-52489259D01*
X148221000Y-52666741D01*
X148186376Y-52840812D01*
X148118456Y-53004784D01*
X148019853Y-53152354D01*
X147894354Y-53277853D01*
X147746784Y-53376456D01*
X147582812Y-53444376D01*
X147433512Y-53474073D01*
X147408742Y-53479000D01*
X147231258Y-53479000D01*
X147206488Y-53474073D01*
X147057188Y-53444376D01*
X146893216Y-53376456D01*
X146745646Y-53277853D01*
X146620147Y-53152354D01*
X146521544Y-53004784D01*
X146453624Y-52840812D01*
X146419000Y-52666741D01*
X146419000Y-52489259D01*
X146453624Y-52315188D01*
X146521544Y-52151216D01*
X146620147Y-52003646D01*
X146745646Y-51878147D01*
X146893216Y-51779544D01*
X147057188Y-51711624D01*
X147206488Y-51681927D01*
X147231258Y-51677000D01*
X147408742Y-51677000D01*
X147433512Y-51681927D01*
G37*
G36*
X162444912Y-51681927D02*
G01*
X162594212Y-51711624D01*
X162758184Y-51779544D01*
X162905754Y-51878147D01*
X163031253Y-52003646D01*
X163129856Y-52151216D01*
X163197776Y-52315188D01*
X163232400Y-52489259D01*
X163232400Y-52666741D01*
X163197776Y-52840812D01*
X163129856Y-53004784D01*
X163031253Y-53152354D01*
X162905754Y-53277853D01*
X162758184Y-53376456D01*
X162594212Y-53444376D01*
X162444912Y-53474073D01*
X162420142Y-53479000D01*
X162242658Y-53479000D01*
X162217888Y-53474073D01*
X162068588Y-53444376D01*
X161904616Y-53376456D01*
X161757046Y-53277853D01*
X161631547Y-53152354D01*
X161532944Y-53004784D01*
X161465024Y-52840812D01*
X161430400Y-52666741D01*
X161430400Y-52489259D01*
X161465024Y-52315188D01*
X161532944Y-52151216D01*
X161631547Y-52003646D01*
X161757046Y-51878147D01*
X161904616Y-51779544D01*
X162068588Y-51711624D01*
X162217888Y-51681927D01*
X162242658Y-51677000D01*
X162420142Y-51677000D01*
X162444912Y-51681927D01*
G37*
G36*
X147433512Y-49141927D02*
G01*
X147582812Y-49171624D01*
X147746784Y-49239544D01*
X147894354Y-49338147D01*
X148019853Y-49463646D01*
X148118456Y-49611216D01*
X148186376Y-49775188D01*
X148221000Y-49949259D01*
X148221000Y-50126741D01*
X148186376Y-50300812D01*
X148118456Y-50464784D01*
X148019853Y-50612354D01*
X147894354Y-50737853D01*
X147746784Y-50836456D01*
X147582812Y-50904376D01*
X147433512Y-50934073D01*
X147408742Y-50939000D01*
X147231258Y-50939000D01*
X147206488Y-50934073D01*
X147057188Y-50904376D01*
X146893216Y-50836456D01*
X146745646Y-50737853D01*
X146620147Y-50612354D01*
X146521544Y-50464784D01*
X146453624Y-50300812D01*
X146419000Y-50126741D01*
X146419000Y-49949259D01*
X146453624Y-49775188D01*
X146521544Y-49611216D01*
X146620147Y-49463646D01*
X146745646Y-49338147D01*
X146893216Y-49239544D01*
X147057188Y-49171624D01*
X147206488Y-49141927D01*
X147231258Y-49137000D01*
X147408742Y-49137000D01*
X147433512Y-49141927D01*
G37*
G36*
X162419512Y-49141927D02*
G01*
X162568812Y-49171624D01*
X162732784Y-49239544D01*
X162880354Y-49338147D01*
X163005853Y-49463646D01*
X163104456Y-49611216D01*
X163172376Y-49775188D01*
X163207000Y-49949259D01*
X163207000Y-50126741D01*
X163172376Y-50300812D01*
X163104456Y-50464784D01*
X163005853Y-50612354D01*
X162880354Y-50737853D01*
X162732784Y-50836456D01*
X162568812Y-50904376D01*
X162419512Y-50934073D01*
X162394742Y-50939000D01*
X162217258Y-50939000D01*
X162192488Y-50934073D01*
X162043188Y-50904376D01*
X161879216Y-50836456D01*
X161731646Y-50737853D01*
X161606147Y-50612354D01*
X161507544Y-50464784D01*
X161439624Y-50300812D01*
X161405000Y-50126741D01*
X161405000Y-49949259D01*
X161439624Y-49775188D01*
X161507544Y-49611216D01*
X161606147Y-49463646D01*
X161731646Y-49338147D01*
X161879216Y-49239544D01*
X162043188Y-49171624D01*
X162192488Y-49141927D01*
X162217258Y-49137000D01*
X162394742Y-49137000D01*
X162419512Y-49141927D01*
G37*
G36*
X147433512Y-46601927D02*
G01*
X147582812Y-46631624D01*
X147746784Y-46699544D01*
X147894354Y-46798147D01*
X148019853Y-46923646D01*
X148118456Y-47071216D01*
X148186376Y-47235188D01*
X148221000Y-47409259D01*
X148221000Y-47586741D01*
X148186376Y-47760812D01*
X148118456Y-47924784D01*
X148019853Y-48072354D01*
X147894354Y-48197853D01*
X147746784Y-48296456D01*
X147582812Y-48364376D01*
X147433512Y-48394073D01*
X147408742Y-48399000D01*
X147231258Y-48399000D01*
X147206488Y-48394073D01*
X147057188Y-48364376D01*
X146893216Y-48296456D01*
X146745646Y-48197853D01*
X146620147Y-48072354D01*
X146521544Y-47924784D01*
X146453624Y-47760812D01*
X146419000Y-47586741D01*
X146419000Y-47409259D01*
X146453624Y-47235188D01*
X146521544Y-47071216D01*
X146620147Y-46923646D01*
X146745646Y-46798147D01*
X146893216Y-46699544D01*
X147057188Y-46631624D01*
X147206488Y-46601927D01*
X147231258Y-46597000D01*
X147408742Y-46597000D01*
X147433512Y-46601927D01*
G37*
G36*
X162444912Y-46601927D02*
G01*
X162594212Y-46631624D01*
X162758184Y-46699544D01*
X162905754Y-46798147D01*
X163031253Y-46923646D01*
X163129856Y-47071216D01*
X163197776Y-47235188D01*
X163232400Y-47409259D01*
X163232400Y-47586741D01*
X163197776Y-47760812D01*
X163129856Y-47924784D01*
X163031253Y-48072354D01*
X162905754Y-48197853D01*
X162758184Y-48296456D01*
X162594212Y-48364376D01*
X162444912Y-48394073D01*
X162420142Y-48399000D01*
X162242658Y-48399000D01*
X162217888Y-48394073D01*
X162068588Y-48364376D01*
X161904616Y-48296456D01*
X161757046Y-48197853D01*
X161631547Y-48072354D01*
X161532944Y-47924784D01*
X161465024Y-47760812D01*
X161430400Y-47586741D01*
X161430400Y-47409259D01*
X161465024Y-47235188D01*
X161532944Y-47071216D01*
X161631547Y-46923646D01*
X161757046Y-46798147D01*
X161904616Y-46699544D01*
X162068588Y-46631624D01*
X162217888Y-46601927D01*
X162242658Y-46597000D01*
X162420142Y-46597000D01*
X162444912Y-46601927D01*
G37*
G36*
X148856778Y-38490547D02*
G01*
X149023224Y-38559491D01*
X149173022Y-38659583D01*
X149300417Y-38786978D01*
X149400509Y-38936776D01*
X149469453Y-39103222D01*
X149504600Y-39279918D01*
X149504600Y-39460082D01*
X149469453Y-39636778D01*
X149400509Y-39803224D01*
X149300417Y-39953022D01*
X149173022Y-40080417D01*
X149023224Y-40180509D01*
X148856778Y-40249453D01*
X148680082Y-40284600D01*
X148499918Y-40284600D01*
X148323222Y-40249453D01*
X148156776Y-40180509D01*
X148006978Y-40080417D01*
X147879583Y-39953022D01*
X147779491Y-39803224D01*
X147710547Y-39636778D01*
X147675400Y-39460082D01*
X147675400Y-39279918D01*
X147710547Y-39103222D01*
X147779491Y-38936776D01*
X147879583Y-38786978D01*
X148006978Y-38659583D01*
X148156776Y-38559491D01*
X148323222Y-38490547D01*
X148499918Y-38455400D01*
X148680082Y-38455400D01*
X148856778Y-38490547D01*
G37*
G36*
X146316778Y-38490547D02*
G01*
X146483224Y-38559491D01*
X146633022Y-38659583D01*
X146760417Y-38786978D01*
X146860509Y-38936776D01*
X146929453Y-39103222D01*
X146964600Y-39279918D01*
X146964600Y-39460082D01*
X146929453Y-39636778D01*
X146860509Y-39803224D01*
X146760417Y-39953022D01*
X146633022Y-40080417D01*
X146483224Y-40180509D01*
X146316778Y-40249453D01*
X146140082Y-40284600D01*
X145959918Y-40284600D01*
X145783222Y-40249453D01*
X145616776Y-40180509D01*
X145466978Y-40080417D01*
X145339583Y-39953022D01*
X145239491Y-39803224D01*
X145170547Y-39636778D01*
X145135400Y-39460082D01*
X145135400Y-39279918D01*
X145170547Y-39103222D01*
X145239491Y-38936776D01*
X145339583Y-38786978D01*
X145466978Y-38659583D01*
X145616776Y-38559491D01*
X145783222Y-38490547D01*
X145959918Y-38455400D01*
X146140082Y-38455400D01*
X146316778Y-38490547D01*
G37*
G36*
X143776778Y-38490547D02*
G01*
X143943224Y-38559491D01*
X144093022Y-38659583D01*
X144220417Y-38786978D01*
X144320509Y-38936776D01*
X144389453Y-39103222D01*
X144424600Y-39279918D01*
X144424600Y-39460082D01*
X144389453Y-39636778D01*
X144320509Y-39803224D01*
X144220417Y-39953022D01*
X144093022Y-40080417D01*
X143943224Y-40180509D01*
X143776778Y-40249453D01*
X143600082Y-40284600D01*
X143419918Y-40284600D01*
X143243222Y-40249453D01*
X143076776Y-40180509D01*
X142926978Y-40080417D01*
X142799583Y-39953022D01*
X142699491Y-39803224D01*
X142630547Y-39636778D01*
X142595400Y-39460082D01*
X142595400Y-39279918D01*
X142630547Y-39103222D01*
X142699491Y-38936776D01*
X142799583Y-38786978D01*
X142926978Y-38659583D01*
X143076776Y-38559491D01*
X143243222Y-38490547D01*
X143419918Y-38455400D01*
X143600082Y-38455400D01*
X143776778Y-38490547D01*
G37*
G36*
X141236778Y-38490547D02*
G01*
X141403224Y-38559491D01*
X141553022Y-38659583D01*
X141680417Y-38786978D01*
X141780509Y-38936776D01*
X141849453Y-39103222D01*
X141884600Y-39279918D01*
X141884600Y-39460082D01*
X141849453Y-39636778D01*
X141780509Y-39803224D01*
X141680417Y-39953022D01*
X141553022Y-40080417D01*
X141403224Y-40180509D01*
X141236778Y-40249453D01*
X141060082Y-40284600D01*
X140879918Y-40284600D01*
X140703222Y-40249453D01*
X140536776Y-40180509D01*
X140386978Y-40080417D01*
X140259583Y-39953022D01*
X140159491Y-39803224D01*
X140090547Y-39636778D01*
X140055400Y-39460082D01*
X140055400Y-39279918D01*
X140090547Y-39103222D01*
X140159491Y-38936776D01*
X140259583Y-38786978D01*
X140386978Y-38659583D01*
X140536776Y-38559491D01*
X140703222Y-38490547D01*
X140879918Y-38455400D01*
X141060082Y-38455400D01*
X141236778Y-38490547D01*
G37*
G36*
X138696778Y-38490547D02*
G01*
X138863224Y-38559491D01*
X139013022Y-38659583D01*
X139140417Y-38786978D01*
X139240509Y-38936776D01*
X139309453Y-39103222D01*
X139344600Y-39279918D01*
X139344600Y-39460082D01*
X139309453Y-39636778D01*
X139240509Y-39803224D01*
X139140417Y-39953022D01*
X139013022Y-40080417D01*
X138863224Y-40180509D01*
X138696778Y-40249453D01*
X138520082Y-40284600D01*
X138339918Y-40284600D01*
X138163222Y-40249453D01*
X137996776Y-40180509D01*
X137846978Y-40080417D01*
X137719583Y-39953022D01*
X137619491Y-39803224D01*
X137550547Y-39636778D01*
X137515400Y-39460082D01*
X137515400Y-39279918D01*
X137550547Y-39103222D01*
X137619491Y-38936776D01*
X137719583Y-38786978D01*
X137846978Y-38659583D01*
X137996776Y-38559491D01*
X138163222Y-38490547D01*
X138339918Y-38455400D01*
X138520082Y-38455400D01*
X138696778Y-38490547D01*
G37*
G36*
X136156778Y-38490547D02*
G01*
X136323224Y-38559491D01*
X136473022Y-38659583D01*
X136600417Y-38786978D01*
X136700509Y-38936776D01*
X136769453Y-39103222D01*
X136804600Y-39279918D01*
X136804600Y-39460082D01*
X136769453Y-39636778D01*
X136700509Y-39803224D01*
X136600417Y-39953022D01*
X136473022Y-40080417D01*
X136323224Y-40180509D01*
X136156778Y-40249453D01*
X135980082Y-40284600D01*
X135799918Y-40284600D01*
X135623222Y-40249453D01*
X135456776Y-40180509D01*
X135306978Y-40080417D01*
X135179583Y-39953022D01*
X135079491Y-39803224D01*
X135010547Y-39636778D01*
X134975400Y-39460082D01*
X134975400Y-39279918D01*
X135010547Y-39103222D01*
X135079491Y-38936776D01*
X135179583Y-38786978D01*
X135306978Y-38659583D01*
X135456776Y-38559491D01*
X135623222Y-38490547D01*
X135799918Y-38455400D01*
X135980082Y-38455400D01*
X136156778Y-38490547D01*
G37*
G36*
X133616778Y-38490547D02*
G01*
X133783224Y-38559491D01*
X133933022Y-38659583D01*
X134060417Y-38786978D01*
X134160509Y-38936776D01*
X134229453Y-39103222D01*
X134264600Y-39279918D01*
X134264600Y-39460082D01*
X134229453Y-39636778D01*
X134160509Y-39803224D01*
X134060417Y-39953022D01*
X133933022Y-40080417D01*
X133783224Y-40180509D01*
X133616778Y-40249453D01*
X133440082Y-40284600D01*
X133259918Y-40284600D01*
X133083222Y-40249453D01*
X132916776Y-40180509D01*
X132766978Y-40080417D01*
X132639583Y-39953022D01*
X132539491Y-39803224D01*
X132470547Y-39636778D01*
X132435400Y-39460082D01*
X132435400Y-39279918D01*
X132470547Y-39103222D01*
X132539491Y-38936776D01*
X132639583Y-38786978D01*
X132766978Y-38659583D01*
X132916776Y-38559491D01*
X133083222Y-38490547D01*
X133259918Y-38455400D01*
X133440082Y-38455400D01*
X133616778Y-38490547D01*
G37*
G36*
X131076778Y-38490547D02*
G01*
X131243224Y-38559491D01*
X131393022Y-38659583D01*
X131520417Y-38786978D01*
X131620509Y-38936776D01*
X131689453Y-39103222D01*
X131724600Y-39279918D01*
X131724600Y-39460082D01*
X131689453Y-39636778D01*
X131620509Y-39803224D01*
X131520417Y-39953022D01*
X131393022Y-40080417D01*
X131243224Y-40180509D01*
X131076778Y-40249453D01*
X130900082Y-40284600D01*
X130719918Y-40284600D01*
X130543222Y-40249453D01*
X130376776Y-40180509D01*
X130226978Y-40080417D01*
X130099583Y-39953022D01*
X129999491Y-39803224D01*
X129930547Y-39636778D01*
X129895400Y-39460082D01*
X129895400Y-39279918D01*
X129930547Y-39103222D01*
X129999491Y-38936776D01*
X130099583Y-38786978D01*
X130226978Y-38659583D01*
X130376776Y-38559491D01*
X130543222Y-38490547D01*
X130719918Y-38455400D01*
X130900082Y-38455400D01*
X131076778Y-38490547D01*
G37*
G36*
X179336778Y-38490547D02*
G01*
X179503224Y-38559491D01*
X179653022Y-38659583D01*
X179780417Y-38786978D01*
X179880509Y-38936776D01*
X179949453Y-39103222D01*
X179984600Y-39279918D01*
X179984600Y-39460082D01*
X179949453Y-39636778D01*
X179880509Y-39803224D01*
X179780417Y-39953022D01*
X179653022Y-40080417D01*
X179503224Y-40180509D01*
X179336778Y-40249453D01*
X179160082Y-40284600D01*
X178979918Y-40284600D01*
X178803222Y-40249453D01*
X178636776Y-40180509D01*
X178486978Y-40080417D01*
X178359583Y-39953022D01*
X178259491Y-39803224D01*
X178190547Y-39636778D01*
X178155400Y-39460082D01*
X178155400Y-39279918D01*
X178190547Y-39103222D01*
X178259491Y-38936776D01*
X178359583Y-38786978D01*
X178486978Y-38659583D01*
X178636776Y-38559491D01*
X178803222Y-38490547D01*
X178979918Y-38455400D01*
X179160082Y-38455400D01*
X179336778Y-38490547D01*
G37*
G36*
X176796778Y-38490547D02*
G01*
X176963224Y-38559491D01*
X177113022Y-38659583D01*
X177240417Y-38786978D01*
X177340509Y-38936776D01*
X177409453Y-39103222D01*
X177444600Y-39279918D01*
X177444600Y-39460082D01*
X177409453Y-39636778D01*
X177340509Y-39803224D01*
X177240417Y-39953022D01*
X177113022Y-40080417D01*
X176963224Y-40180509D01*
X176796778Y-40249453D01*
X176620082Y-40284600D01*
X176439918Y-40284600D01*
X176263222Y-40249453D01*
X176096776Y-40180509D01*
X175946978Y-40080417D01*
X175819583Y-39953022D01*
X175719491Y-39803224D01*
X175650547Y-39636778D01*
X175615400Y-39460082D01*
X175615400Y-39279918D01*
X175650547Y-39103222D01*
X175719491Y-38936776D01*
X175819583Y-38786978D01*
X175946978Y-38659583D01*
X176096776Y-38559491D01*
X176263222Y-38490547D01*
X176439918Y-38455400D01*
X176620082Y-38455400D01*
X176796778Y-38490547D01*
G37*
G36*
X171716778Y-38490547D02*
G01*
X171883224Y-38559491D01*
X172033022Y-38659583D01*
X172160417Y-38786978D01*
X172260509Y-38936776D01*
X172329453Y-39103222D01*
X172364600Y-39279918D01*
X172364600Y-39460082D01*
X172329453Y-39636778D01*
X172260509Y-39803224D01*
X172160417Y-39953022D01*
X172033022Y-40080417D01*
X171883224Y-40180509D01*
X171716778Y-40249453D01*
X171540082Y-40284600D01*
X171359918Y-40284600D01*
X171183222Y-40249453D01*
X171016776Y-40180509D01*
X170866978Y-40080417D01*
X170739583Y-39953022D01*
X170639491Y-39803224D01*
X170570547Y-39636778D01*
X170535400Y-39460082D01*
X170535400Y-39279918D01*
X170570547Y-39103222D01*
X170639491Y-38936776D01*
X170739583Y-38786978D01*
X170866978Y-38659583D01*
X171016776Y-38559491D01*
X171183222Y-38490547D01*
X171359918Y-38455400D01*
X171540082Y-38455400D01*
X171716778Y-38490547D01*
G37*
G36*
X174256778Y-38490547D02*
G01*
X174423224Y-38559491D01*
X174573022Y-38659583D01*
X174700417Y-38786978D01*
X174800509Y-38936776D01*
X174869453Y-39103222D01*
X174904600Y-39279918D01*
X174904600Y-39460082D01*
X174869453Y-39636778D01*
X174800509Y-39803224D01*
X174700417Y-39953022D01*
X174573022Y-40080417D01*
X174423224Y-40180509D01*
X174256778Y-40249453D01*
X174080082Y-40284600D01*
X173899918Y-40284600D01*
X173723222Y-40249453D01*
X173556776Y-40180509D01*
X173406978Y-40080417D01*
X173279583Y-39953022D01*
X173179491Y-39803224D01*
X173110547Y-39636778D01*
X173075400Y-39460082D01*
X173075400Y-39279918D01*
X173110547Y-39103222D01*
X173179491Y-38936776D01*
X173279583Y-38786978D01*
X173406978Y-38659583D01*
X173556776Y-38559491D01*
X173723222Y-38490547D01*
X173899918Y-38455400D01*
X174080082Y-38455400D01*
X174256778Y-38490547D01*
G37*
G36*
X151396778Y-38490547D02*
G01*
X151563224Y-38559491D01*
X151713022Y-38659583D01*
X151840417Y-38786978D01*
X151940509Y-38936776D01*
X152009453Y-39103222D01*
X152044600Y-39279918D01*
X152044600Y-39460082D01*
X152009453Y-39636778D01*
X151940509Y-39803224D01*
X151840417Y-39953022D01*
X151713022Y-40080417D01*
X151563224Y-40180509D01*
X151396778Y-40249453D01*
X151220082Y-40284600D01*
X151039918Y-40284600D01*
X150863222Y-40249453D01*
X150696776Y-40180509D01*
X150546978Y-40080417D01*
X150419583Y-39953022D01*
X150319491Y-39803224D01*
X150250547Y-39636778D01*
X150215400Y-39460082D01*
X150215400Y-39279918D01*
X150250547Y-39103222D01*
X150319491Y-38936776D01*
X150419583Y-38786978D01*
X150546978Y-38659583D01*
X150696776Y-38559491D01*
X150863222Y-38490547D01*
X151039918Y-38455400D01*
X151220082Y-38455400D01*
X151396778Y-38490547D01*
G37*
G36*
X153936778Y-38490547D02*
G01*
X154103224Y-38559491D01*
X154253022Y-38659583D01*
X154380417Y-38786978D01*
X154480509Y-38936776D01*
X154549453Y-39103222D01*
X154584600Y-39279918D01*
X154584600Y-39460082D01*
X154549453Y-39636778D01*
X154480509Y-39803224D01*
X154380417Y-39953022D01*
X154253022Y-40080417D01*
X154103224Y-40180509D01*
X153936778Y-40249453D01*
X153760082Y-40284600D01*
X153579918Y-40284600D01*
X153403222Y-40249453D01*
X153236776Y-40180509D01*
X153086978Y-40080417D01*
X152959583Y-39953022D01*
X152859491Y-39803224D01*
X152790547Y-39636778D01*
X152755400Y-39460082D01*
X152755400Y-39279918D01*
X152790547Y-39103222D01*
X152859491Y-38936776D01*
X152959583Y-38786978D01*
X153086978Y-38659583D01*
X153236776Y-38559491D01*
X153403222Y-38490547D01*
X153579918Y-38455400D01*
X153760082Y-38455400D01*
X153936778Y-38490547D01*
G37*
G36*
X156476778Y-38490547D02*
G01*
X156643224Y-38559491D01*
X156793022Y-38659583D01*
X156920417Y-38786978D01*
X157020509Y-38936776D01*
X157089453Y-39103222D01*
X157124600Y-39279918D01*
X157124600Y-39460082D01*
X157089453Y-39636778D01*
X157020509Y-39803224D01*
X156920417Y-39953022D01*
X156793022Y-40080417D01*
X156643224Y-40180509D01*
X156476778Y-40249453D01*
X156300082Y-40284600D01*
X156119918Y-40284600D01*
X155943222Y-40249453D01*
X155776776Y-40180509D01*
X155626978Y-40080417D01*
X155499583Y-39953022D01*
X155399491Y-39803224D01*
X155330547Y-39636778D01*
X155295400Y-39460082D01*
X155295400Y-39279918D01*
X155330547Y-39103222D01*
X155399491Y-38936776D01*
X155499583Y-38786978D01*
X155626978Y-38659583D01*
X155776776Y-38559491D01*
X155943222Y-38490547D01*
X156119918Y-38455400D01*
X156300082Y-38455400D01*
X156476778Y-38490547D01*
G37*
G36*
X159016778Y-38490547D02*
G01*
X159183224Y-38559491D01*
X159333022Y-38659583D01*
X159460417Y-38786978D01*
X159560509Y-38936776D01*
X159629453Y-39103222D01*
X159664600Y-39279918D01*
X159664600Y-39460082D01*
X159629453Y-39636778D01*
X159560509Y-39803224D01*
X159460417Y-39953022D01*
X159333022Y-40080417D01*
X159183224Y-40180509D01*
X159016778Y-40249453D01*
X158840082Y-40284600D01*
X158659918Y-40284600D01*
X158483222Y-40249453D01*
X158316776Y-40180509D01*
X158166978Y-40080417D01*
X158039583Y-39953022D01*
X157939491Y-39803224D01*
X157870547Y-39636778D01*
X157835400Y-39460082D01*
X157835400Y-39279918D01*
X157870547Y-39103222D01*
X157939491Y-38936776D01*
X158039583Y-38786978D01*
X158166978Y-38659583D01*
X158316776Y-38559491D01*
X158483222Y-38490547D01*
X158659918Y-38455400D01*
X158840082Y-38455400D01*
X159016778Y-38490547D01*
G37*
G36*
X161556778Y-38490547D02*
G01*
X161723224Y-38559491D01*
X161873022Y-38659583D01*
X162000417Y-38786978D01*
X162100509Y-38936776D01*
X162169453Y-39103222D01*
X162204600Y-39279918D01*
X162204600Y-39460082D01*
X162169453Y-39636778D01*
X162100509Y-39803224D01*
X162000417Y-39953022D01*
X161873022Y-40080417D01*
X161723224Y-40180509D01*
X161556778Y-40249453D01*
X161380082Y-40284600D01*
X161199918Y-40284600D01*
X161023222Y-40249453D01*
X160856776Y-40180509D01*
X160706978Y-40080417D01*
X160579583Y-39953022D01*
X160479491Y-39803224D01*
X160410547Y-39636778D01*
X160375400Y-39460082D01*
X160375400Y-39279918D01*
X160410547Y-39103222D01*
X160479491Y-38936776D01*
X160579583Y-38786978D01*
X160706978Y-38659583D01*
X160856776Y-38559491D01*
X161023222Y-38490547D01*
X161199918Y-38455400D01*
X161380082Y-38455400D01*
X161556778Y-38490547D01*
G37*
G36*
X164096778Y-38490547D02*
G01*
X164263224Y-38559491D01*
X164413022Y-38659583D01*
X164540417Y-38786978D01*
X164640509Y-38936776D01*
X164709453Y-39103222D01*
X164744600Y-39279918D01*
X164744600Y-39460082D01*
X164709453Y-39636778D01*
X164640509Y-39803224D01*
X164540417Y-39953022D01*
X164413022Y-40080417D01*
X164263224Y-40180509D01*
X164096778Y-40249453D01*
X163920082Y-40284600D01*
X163739918Y-40284600D01*
X163563222Y-40249453D01*
X163396776Y-40180509D01*
X163246978Y-40080417D01*
X163119583Y-39953022D01*
X163019491Y-39803224D01*
X162950547Y-39636778D01*
X162915400Y-39460082D01*
X162915400Y-39279918D01*
X162950547Y-39103222D01*
X163019491Y-38936776D01*
X163119583Y-38786978D01*
X163246978Y-38659583D01*
X163396776Y-38559491D01*
X163563222Y-38490547D01*
X163739918Y-38455400D01*
X163920082Y-38455400D01*
X164096778Y-38490547D01*
G37*
G36*
X166636778Y-38490547D02*
G01*
X166803224Y-38559491D01*
X166953022Y-38659583D01*
X167080417Y-38786978D01*
X167180509Y-38936776D01*
X167249453Y-39103222D01*
X167284600Y-39279918D01*
X167284600Y-39460082D01*
X167249453Y-39636778D01*
X167180509Y-39803224D01*
X167080417Y-39953022D01*
X166953022Y-40080417D01*
X166803224Y-40180509D01*
X166636778Y-40249453D01*
X166460082Y-40284600D01*
X166279918Y-40284600D01*
X166103222Y-40249453D01*
X165936776Y-40180509D01*
X165786978Y-40080417D01*
X165659583Y-39953022D01*
X165559491Y-39803224D01*
X165490547Y-39636778D01*
X165455400Y-39460082D01*
X165455400Y-39279918D01*
X165490547Y-39103222D01*
X165559491Y-38936776D01*
X165659583Y-38786978D01*
X165786978Y-38659583D01*
X165936776Y-38559491D01*
X166103222Y-38490547D01*
X166279918Y-38455400D01*
X166460082Y-38455400D01*
X166636778Y-38490547D01*
G37*
G36*
X169176778Y-38490547D02*
G01*
X169343224Y-38559491D01*
X169493022Y-38659583D01*
X169620417Y-38786978D01*
X169720509Y-38936776D01*
X169789453Y-39103222D01*
X169824600Y-39279918D01*
X169824600Y-39460082D01*
X169789453Y-39636778D01*
X169720509Y-39803224D01*
X169620417Y-39953022D01*
X169493022Y-40080417D01*
X169343224Y-40180509D01*
X169176778Y-40249453D01*
X169000082Y-40284600D01*
X168819918Y-40284600D01*
X168643222Y-40249453D01*
X168476776Y-40180509D01*
X168326978Y-40080417D01*
X168199583Y-39953022D01*
X168099491Y-39803224D01*
X168030547Y-39636778D01*
X167995400Y-39460082D01*
X167995400Y-39279918D01*
X168030547Y-39103222D01*
X168099491Y-38936776D01*
X168199583Y-38786978D01*
X168326978Y-38659583D01*
X168476776Y-38559491D01*
X168643222Y-38490547D01*
X168819918Y-38455400D01*
X169000082Y-38455400D01*
X169176778Y-38490547D01*
G37*
G36*
X146316778Y-35950547D02*
G01*
X146483224Y-36019491D01*
X146633022Y-36119583D01*
X146760417Y-36246978D01*
X146860509Y-36396776D01*
X146929453Y-36563222D01*
X146964600Y-36739918D01*
X146964600Y-36920082D01*
X146929453Y-37096778D01*
X146860509Y-37263224D01*
X146760417Y-37413022D01*
X146633022Y-37540417D01*
X146483224Y-37640509D01*
X146316778Y-37709453D01*
X146140082Y-37744600D01*
X145959918Y-37744600D01*
X145783222Y-37709453D01*
X145616776Y-37640509D01*
X145466978Y-37540417D01*
X145339583Y-37413022D01*
X145239491Y-37263224D01*
X145170547Y-37096778D01*
X145135400Y-36920082D01*
X145135400Y-36739918D01*
X145170547Y-36563222D01*
X145239491Y-36396776D01*
X145339583Y-36246978D01*
X145466978Y-36119583D01*
X145616776Y-36019491D01*
X145783222Y-35950547D01*
X145959918Y-35915400D01*
X146140082Y-35915400D01*
X146316778Y-35950547D01*
G37*
G36*
X143776778Y-35950547D02*
G01*
X143943224Y-36019491D01*
X144093022Y-36119583D01*
X144220417Y-36246978D01*
X144320509Y-36396776D01*
X144389453Y-36563222D01*
X144424600Y-36739918D01*
X144424600Y-36920082D01*
X144389453Y-37096778D01*
X144320509Y-37263224D01*
X144220417Y-37413022D01*
X144093022Y-37540417D01*
X143943224Y-37640509D01*
X143776778Y-37709453D01*
X143600082Y-37744600D01*
X143419918Y-37744600D01*
X143243222Y-37709453D01*
X143076776Y-37640509D01*
X142926978Y-37540417D01*
X142799583Y-37413022D01*
X142699491Y-37263224D01*
X142630547Y-37096778D01*
X142595400Y-36920082D01*
X142595400Y-36739918D01*
X142630547Y-36563222D01*
X142699491Y-36396776D01*
X142799583Y-36246978D01*
X142926978Y-36119583D01*
X143076776Y-36019491D01*
X143243222Y-35950547D01*
X143419918Y-35915400D01*
X143600082Y-35915400D01*
X143776778Y-35950547D01*
G37*
G36*
X141236778Y-35950547D02*
G01*
X141403224Y-36019491D01*
X141553022Y-36119583D01*
X141680417Y-36246978D01*
X141780509Y-36396776D01*
X141849453Y-36563222D01*
X141884600Y-36739918D01*
X141884600Y-36920082D01*
X141849453Y-37096778D01*
X141780509Y-37263224D01*
X141680417Y-37413022D01*
X141553022Y-37540417D01*
X141403224Y-37640509D01*
X141236778Y-37709453D01*
X141060082Y-37744600D01*
X140879918Y-37744600D01*
X140703222Y-37709453D01*
X140536776Y-37640509D01*
X140386978Y-37540417D01*
X140259583Y-37413022D01*
X140159491Y-37263224D01*
X140090547Y-37096778D01*
X140055400Y-36920082D01*
X140055400Y-36739918D01*
X140090547Y-36563222D01*
X140159491Y-36396776D01*
X140259583Y-36246978D01*
X140386978Y-36119583D01*
X140536776Y-36019491D01*
X140703222Y-35950547D01*
X140879918Y-35915400D01*
X141060082Y-35915400D01*
X141236778Y-35950547D01*
G37*
G36*
X138696778Y-35950547D02*
G01*
X138863224Y-36019491D01*
X139013022Y-36119583D01*
X139140417Y-36246978D01*
X139240509Y-36396776D01*
X139309453Y-36563222D01*
X139344600Y-36739918D01*
X139344600Y-36920082D01*
X139309453Y-37096778D01*
X139240509Y-37263224D01*
X139140417Y-37413022D01*
X139013022Y-37540417D01*
X138863224Y-37640509D01*
X138696778Y-37709453D01*
X138520082Y-37744600D01*
X138339918Y-37744600D01*
X138163222Y-37709453D01*
X137996776Y-37640509D01*
X137846978Y-37540417D01*
X137719583Y-37413022D01*
X137619491Y-37263224D01*
X137550547Y-37096778D01*
X137515400Y-36920082D01*
X137515400Y-36739918D01*
X137550547Y-36563222D01*
X137619491Y-36396776D01*
X137719583Y-36246978D01*
X137846978Y-36119583D01*
X137996776Y-36019491D01*
X138163222Y-35950547D01*
X138339918Y-35915400D01*
X138520082Y-35915400D01*
X138696778Y-35950547D01*
G37*
G36*
X136156778Y-35950547D02*
G01*
X136323224Y-36019491D01*
X136473022Y-36119583D01*
X136600417Y-36246978D01*
X136700509Y-36396776D01*
X136769453Y-36563222D01*
X136804600Y-36739918D01*
X136804600Y-36920082D01*
X136769453Y-37096778D01*
X136700509Y-37263224D01*
X136600417Y-37413022D01*
X136473022Y-37540417D01*
X136323224Y-37640509D01*
X136156778Y-37709453D01*
X135980082Y-37744600D01*
X135799918Y-37744600D01*
X135623222Y-37709453D01*
X135456776Y-37640509D01*
X135306978Y-37540417D01*
X135179583Y-37413022D01*
X135079491Y-37263224D01*
X135010547Y-37096778D01*
X134975400Y-36920082D01*
X134975400Y-36739918D01*
X135010547Y-36563222D01*
X135079491Y-36396776D01*
X135179583Y-36246978D01*
X135306978Y-36119583D01*
X135456776Y-36019491D01*
X135623222Y-35950547D01*
X135799918Y-35915400D01*
X135980082Y-35915400D01*
X136156778Y-35950547D01*
G37*
G36*
X131076778Y-35950547D02*
G01*
X131243224Y-36019491D01*
X131393022Y-36119583D01*
X131520417Y-36246978D01*
X131620509Y-36396776D01*
X131689453Y-36563222D01*
X131724600Y-36739918D01*
X131724600Y-36920082D01*
X131689453Y-37096778D01*
X131620509Y-37263224D01*
X131520417Y-37413022D01*
X131393022Y-37540417D01*
X131243224Y-37640509D01*
X131076778Y-37709453D01*
X130900082Y-37744600D01*
X130719918Y-37744600D01*
X130543222Y-37709453D01*
X130376776Y-37640509D01*
X130226978Y-37540417D01*
X130099583Y-37413022D01*
X129999491Y-37263224D01*
X129930547Y-37096778D01*
X129895400Y-36920082D01*
X129895400Y-36739918D01*
X129930547Y-36563222D01*
X129999491Y-36396776D01*
X130099583Y-36246978D01*
X130226978Y-36119583D01*
X130376776Y-36019491D01*
X130543222Y-35950547D01*
X130719918Y-35915400D01*
X130900082Y-35915400D01*
X131076778Y-35950547D01*
G37*
G36*
X159016778Y-35950547D02*
G01*
X159183224Y-36019491D01*
X159333022Y-36119583D01*
X159460417Y-36246978D01*
X159560509Y-36396776D01*
X159629453Y-36563222D01*
X159664600Y-36739918D01*
X159664600Y-36920082D01*
X159629453Y-37096778D01*
X159560509Y-37263224D01*
X159460417Y-37413022D01*
X159333022Y-37540417D01*
X159183224Y-37640509D01*
X159016778Y-37709453D01*
X158840082Y-37744600D01*
X158659918Y-37744600D01*
X158483222Y-37709453D01*
X158316776Y-37640509D01*
X158166978Y-37540417D01*
X158039583Y-37413022D01*
X157939491Y-37263224D01*
X157870547Y-37096778D01*
X157835400Y-36920082D01*
X157835400Y-36739918D01*
X157870547Y-36563222D01*
X157939491Y-36396776D01*
X158039583Y-36246978D01*
X158166978Y-36119583D01*
X158316776Y-36019491D01*
X158483222Y-35950547D01*
X158659918Y-35915400D01*
X158840082Y-35915400D01*
X159016778Y-35950547D01*
G37*
G36*
X156476778Y-35950547D02*
G01*
X156643224Y-36019491D01*
X156793022Y-36119583D01*
X156920417Y-36246978D01*
X157020509Y-36396776D01*
X157089453Y-36563222D01*
X157124600Y-36739918D01*
X157124600Y-36920082D01*
X157089453Y-37096778D01*
X157020509Y-37263224D01*
X156920417Y-37413022D01*
X156793022Y-37540417D01*
X156643224Y-37640509D01*
X156476778Y-37709453D01*
X156300082Y-37744600D01*
X156119918Y-37744600D01*
X155943222Y-37709453D01*
X155776776Y-37640509D01*
X155626978Y-37540417D01*
X155499583Y-37413022D01*
X155399491Y-37263224D01*
X155330547Y-37096778D01*
X155295400Y-36920082D01*
X155295400Y-36739918D01*
X155330547Y-36563222D01*
X155399491Y-36396776D01*
X155499583Y-36246978D01*
X155626978Y-36119583D01*
X155776776Y-36019491D01*
X155943222Y-35950547D01*
X156119918Y-35915400D01*
X156300082Y-35915400D01*
X156476778Y-35950547D01*
G37*
G36*
X161556778Y-35950547D02*
G01*
X161723224Y-36019491D01*
X161873022Y-36119583D01*
X162000417Y-36246978D01*
X162100509Y-36396776D01*
X162169453Y-36563222D01*
X162204600Y-36739918D01*
X162204600Y-36920082D01*
X162169453Y-37096778D01*
X162100509Y-37263224D01*
X162000417Y-37413022D01*
X161873022Y-37540417D01*
X161723224Y-37640509D01*
X161556778Y-37709453D01*
X161380082Y-37744600D01*
X161199918Y-37744600D01*
X161023222Y-37709453D01*
X160856776Y-37640509D01*
X160706978Y-37540417D01*
X160579583Y-37413022D01*
X160479491Y-37263224D01*
X160410547Y-37096778D01*
X160375400Y-36920082D01*
X160375400Y-36739918D01*
X160410547Y-36563222D01*
X160479491Y-36396776D01*
X160579583Y-36246978D01*
X160706978Y-36119583D01*
X160856776Y-36019491D01*
X161023222Y-35950547D01*
X161199918Y-35915400D01*
X161380082Y-35915400D01*
X161556778Y-35950547D01*
G37*
G36*
X164096778Y-35950547D02*
G01*
X164263224Y-36019491D01*
X164413022Y-36119583D01*
X164540417Y-36246978D01*
X164640509Y-36396776D01*
X164709453Y-36563222D01*
X164744600Y-36739918D01*
X164744600Y-36920082D01*
X164709453Y-37096778D01*
X164640509Y-37263224D01*
X164540417Y-37413022D01*
X164413022Y-37540417D01*
X164263224Y-37640509D01*
X164096778Y-37709453D01*
X163920082Y-37744600D01*
X163739918Y-37744600D01*
X163563222Y-37709453D01*
X163396776Y-37640509D01*
X163246978Y-37540417D01*
X163119583Y-37413022D01*
X163019491Y-37263224D01*
X162950547Y-37096778D01*
X162915400Y-36920082D01*
X162915400Y-36739918D01*
X162950547Y-36563222D01*
X163019491Y-36396776D01*
X163119583Y-36246978D01*
X163246978Y-36119583D01*
X163396776Y-36019491D01*
X163563222Y-35950547D01*
X163739918Y-35915400D01*
X163920082Y-35915400D01*
X164096778Y-35950547D01*
G37*
G36*
X166636778Y-35950547D02*
G01*
X166803224Y-36019491D01*
X166953022Y-36119583D01*
X167080417Y-36246978D01*
X167180509Y-36396776D01*
X167249453Y-36563222D01*
X167284600Y-36739918D01*
X167284600Y-36920082D01*
X167249453Y-37096778D01*
X167180509Y-37263224D01*
X167080417Y-37413022D01*
X166953022Y-37540417D01*
X166803224Y-37640509D01*
X166636778Y-37709453D01*
X166460082Y-37744600D01*
X166279918Y-37744600D01*
X166103222Y-37709453D01*
X165936776Y-37640509D01*
X165786978Y-37540417D01*
X165659583Y-37413022D01*
X165559491Y-37263224D01*
X165490547Y-37096778D01*
X165455400Y-36920082D01*
X165455400Y-36739918D01*
X165490547Y-36563222D01*
X165559491Y-36396776D01*
X165659583Y-36246978D01*
X165786978Y-36119583D01*
X165936776Y-36019491D01*
X166103222Y-35950547D01*
X166279918Y-35915400D01*
X166460082Y-35915400D01*
X166636778Y-35950547D01*
G37*
G36*
X169176778Y-35950547D02*
G01*
X169343224Y-36019491D01*
X169493022Y-36119583D01*
X169620417Y-36246978D01*
X169720509Y-36396776D01*
X169789453Y-36563222D01*
X169824600Y-36739918D01*
X169824600Y-36920082D01*
X169789453Y-37096778D01*
X169720509Y-37263224D01*
X169620417Y-37413022D01*
X169493022Y-37540417D01*
X169343224Y-37640509D01*
X169176778Y-37709453D01*
X169000082Y-37744600D01*
X168819918Y-37744600D01*
X168643222Y-37709453D01*
X168476776Y-37640509D01*
X168326978Y-37540417D01*
X168199583Y-37413022D01*
X168099491Y-37263224D01*
X168030547Y-37096778D01*
X167995400Y-36920082D01*
X167995400Y-36739918D01*
X168030547Y-36563222D01*
X168099491Y-36396776D01*
X168199583Y-36246978D01*
X168326978Y-36119583D01*
X168476776Y-36019491D01*
X168643222Y-35950547D01*
X168819918Y-35915400D01*
X169000082Y-35915400D01*
X169176778Y-35950547D01*
G37*
G36*
X171716778Y-35950547D02*
G01*
X171883224Y-36019491D01*
X172033022Y-36119583D01*
X172160417Y-36246978D01*
X172260509Y-36396776D01*
X172329453Y-36563222D01*
X172364600Y-36739918D01*
X172364600Y-36920082D01*
X172329453Y-37096778D01*
X172260509Y-37263224D01*
X172160417Y-37413022D01*
X172033022Y-37540417D01*
X171883224Y-37640509D01*
X171716778Y-37709453D01*
X171540082Y-37744600D01*
X171359918Y-37744600D01*
X171183222Y-37709453D01*
X171016776Y-37640509D01*
X170866978Y-37540417D01*
X170739583Y-37413022D01*
X170639491Y-37263224D01*
X170570547Y-37096778D01*
X170535400Y-36920082D01*
X170535400Y-36739918D01*
X170570547Y-36563222D01*
X170639491Y-36396776D01*
X170739583Y-36246978D01*
X170866978Y-36119583D01*
X171016776Y-36019491D01*
X171183222Y-35950547D01*
X171359918Y-35915400D01*
X171540082Y-35915400D01*
X171716778Y-35950547D01*
G37*
G36*
X151396778Y-35950547D02*
G01*
X151563224Y-36019491D01*
X151713022Y-36119583D01*
X151840417Y-36246978D01*
X151940509Y-36396776D01*
X152009453Y-36563222D01*
X152044600Y-36739918D01*
X152044600Y-36920082D01*
X152009453Y-37096778D01*
X151940509Y-37263224D01*
X151840417Y-37413022D01*
X151713022Y-37540417D01*
X151563224Y-37640509D01*
X151396778Y-37709453D01*
X151220082Y-37744600D01*
X151039918Y-37744600D01*
X150863222Y-37709453D01*
X150696776Y-37640509D01*
X150546978Y-37540417D01*
X150419583Y-37413022D01*
X150319491Y-37263224D01*
X150250547Y-37096778D01*
X150215400Y-36920082D01*
X150215400Y-36739918D01*
X150250547Y-36563222D01*
X150319491Y-36396776D01*
X150419583Y-36246978D01*
X150546978Y-36119583D01*
X150696776Y-36019491D01*
X150863222Y-35950547D01*
X151039918Y-35915400D01*
X151220082Y-35915400D01*
X151396778Y-35950547D01*
G37*
G36*
X174256778Y-35950547D02*
G01*
X174423224Y-36019491D01*
X174573022Y-36119583D01*
X174700417Y-36246978D01*
X174800509Y-36396776D01*
X174869453Y-36563222D01*
X174904600Y-36739918D01*
X174904600Y-36920082D01*
X174869453Y-37096778D01*
X174800509Y-37263224D01*
X174700417Y-37413022D01*
X174573022Y-37540417D01*
X174423224Y-37640509D01*
X174256778Y-37709453D01*
X174080082Y-37744600D01*
X173899918Y-37744600D01*
X173723222Y-37709453D01*
X173556776Y-37640509D01*
X173406978Y-37540417D01*
X173279583Y-37413022D01*
X173179491Y-37263224D01*
X173110547Y-37096778D01*
X173075400Y-36920082D01*
X173075400Y-36739918D01*
X173110547Y-36563222D01*
X173179491Y-36396776D01*
X173279583Y-36246978D01*
X173406978Y-36119583D01*
X173556776Y-36019491D01*
X173723222Y-35950547D01*
X173899918Y-35915400D01*
X174080082Y-35915400D01*
X174256778Y-35950547D01*
G37*
G36*
X179984600Y-37744600D02*
G01*
X178155400Y-37744600D01*
X178155400Y-35915400D01*
X179984600Y-35915400D01*
X179984600Y-37744600D01*
G37*
G36*
X176796778Y-35950547D02*
G01*
X176963224Y-36019491D01*
X177113022Y-36119583D01*
X177240417Y-36246978D01*
X177340509Y-36396776D01*
X177409453Y-36563222D01*
X177444600Y-36739918D01*
X177444600Y-36920082D01*
X177409453Y-37096778D01*
X177340509Y-37263224D01*
X177240417Y-37413022D01*
X177113022Y-37540417D01*
X176963224Y-37640509D01*
X176796778Y-37709453D01*
X176620082Y-37744600D01*
X176439918Y-37744600D01*
X176263222Y-37709453D01*
X176096776Y-37640509D01*
X175946978Y-37540417D01*
X175819583Y-37413022D01*
X175719491Y-37263224D01*
X175650547Y-37096778D01*
X175615400Y-36920082D01*
X175615400Y-36739918D01*
X175650547Y-36563222D01*
X175719491Y-36396776D01*
X175819583Y-36246978D01*
X175946978Y-36119583D01*
X176096776Y-36019491D01*
X176263222Y-35950547D01*
X176439918Y-35915400D01*
X176620082Y-35915400D01*
X176796778Y-35950547D01*
G37*
G36*
X148856778Y-35950547D02*
G01*
X149023224Y-36019491D01*
X149173022Y-36119583D01*
X149300417Y-36246978D01*
X149400509Y-36396776D01*
X149469453Y-36563222D01*
X149504600Y-36739918D01*
X149504600Y-36920082D01*
X149469453Y-37096778D01*
X149400509Y-37263224D01*
X149300417Y-37413022D01*
X149173022Y-37540417D01*
X149023224Y-37640509D01*
X148856778Y-37709453D01*
X148680082Y-37744600D01*
X148499918Y-37744600D01*
X148323222Y-37709453D01*
X148156776Y-37640509D01*
X148006978Y-37540417D01*
X147879583Y-37413022D01*
X147779491Y-37263224D01*
X147710547Y-37096778D01*
X147675400Y-36920082D01*
X147675400Y-36739918D01*
X147710547Y-36563222D01*
X147779491Y-36396776D01*
X147879583Y-36246978D01*
X148006978Y-36119583D01*
X148156776Y-36019491D01*
X148323222Y-35950547D01*
X148499918Y-35915400D01*
X148680082Y-35915400D01*
X148856778Y-35950547D01*
G37*
G36*
X133616778Y-35950547D02*
G01*
X133783224Y-36019491D01*
X133933022Y-36119583D01*
X134060417Y-36246978D01*
X134160509Y-36396776D01*
X134229453Y-36563222D01*
X134264600Y-36739918D01*
X134264600Y-36920082D01*
X134229453Y-37096778D01*
X134160509Y-37263224D01*
X134060417Y-37413022D01*
X133933022Y-37540417D01*
X133783224Y-37640509D01*
X133616778Y-37709453D01*
X133440082Y-37744600D01*
X133259918Y-37744600D01*
X133083222Y-37709453D01*
X132916776Y-37640509D01*
X132766978Y-37540417D01*
X132639583Y-37413022D01*
X132539491Y-37263224D01*
X132470547Y-37096778D01*
X132435400Y-36920082D01*
X132435400Y-36739918D01*
X132470547Y-36563222D01*
X132539491Y-36396776D01*
X132639583Y-36246978D01*
X132766978Y-36119583D01*
X132916776Y-36019491D01*
X133083222Y-35950547D01*
X133259918Y-35915400D01*
X133440082Y-35915400D01*
X133616778Y-35950547D01*
G37*
G36*
X153936778Y-35950547D02*
G01*
X154103224Y-36019491D01*
X154253022Y-36119583D01*
X154380417Y-36246978D01*
X154480509Y-36396776D01*
X154549453Y-36563222D01*
X154584600Y-36739918D01*
X154584600Y-36920082D01*
X154549453Y-37096778D01*
X154480509Y-37263224D01*
X154380417Y-37413022D01*
X154253022Y-37540417D01*
X154103224Y-37640509D01*
X153936778Y-37709453D01*
X153760082Y-37744600D01*
X153579918Y-37744600D01*
X153403222Y-37709453D01*
X153236776Y-37640509D01*
X153086978Y-37540417D01*
X152959583Y-37413022D01*
X152859491Y-37263224D01*
X152790547Y-37096778D01*
X152755400Y-36920082D01*
X152755400Y-36739918D01*
X152790547Y-36563222D01*
X152859491Y-36396776D01*
X152959583Y-36246978D01*
X153086978Y-36119583D01*
X153236776Y-36019491D01*
X153403222Y-35950547D01*
X153579918Y-35915400D01*
X153760082Y-35915400D01*
X153936778Y-35950547D01*
G37*
M02*
